<svg xmlns="http://www.w3.org/2000/svg" width="1.2in" height="0.2in" viewBox="0 0 85.4 14"><path d="M82.2,5a.5.5,0,0,0-.5-.5H77.2a.5.5,0,0,0-.5.5.5.5,0,0,0,.5.5h4v4a.5.5,0,0,0,.5.5.5.5,0,0,0,.5-.5Zm-6.1,6.4,6-6-.7-.8-6,6Z" fill="#fff"/><text transform="translate(1.4 11.1)" font-size="12" fill="#fff" font-family="NeueMontreal-Medium, Neue Montreal" font-weight="500">O<tspan x="9.2" y="0" letter-spacing="-0.01em">l</tspan><tspan x="11.7" y="0">ivier </tspan><tspan x="35.7" y="0" letter-spacing="0em">L</tspan><tspan x="42.5" y="0" letter-spacing="0em">a</tspan><tspan x="48.8" y="0" letter-spacing="-0.02em">r</tspan><tspan x="52.8" y="0" letter-spacing="0em">o</tspan><tspan x="59.6" y="0" letter-spacing="0.01em">s</tspan><tspan x="65.5" y="0">e</tspan></text></svg>