<svg xmlns="http://www.w3.org/2000/svg" width="15" height="15" viewBox="0 0 15 15"><path d="M7.5,15a7.2,7.2,0,0,1-2.9-.6,7.8,7.8,0,0,1-2.4-1.6A7.8,7.8,0,0,1,.6,10.4a7.3,7.3,0,0,1,0-5.8A7.8,7.8,0,0,1,2.2,2.2,7.8,7.8,0,0,1,4.6.6a7.3,7.3,0,0,1,5.8,0,7.8,7.8,0,0,1,2.4,1.6,7.8,7.8,0,0,1,1.6,2.4,7.3,7.3,0,0,1,0,5.8,7.8,7.8,0,0,1-1.6,2.4,7.8,7.8,0,0,1-2.4,1.6A7.2,7.2,0,0,1,7.5,15Zm0-1.1a6,6,0,0,0,2.4-.5C13.6,11.9,14,8,14.1,7.2l-6.6.3V1.1A5.8,5.8,0,0,0,3,3,5.8,5.8,0,0,0,1.1,7.5,5.8,5.8,0,0,0,3,12,5.8,5.8,0,0,0,7.5,13.9Z" fill="#133d9e"/></svg>